<svg xmlns="http://www.w3.org/2000/svg" viewBox="0 0 64 64">
  <defs>
    <linearGradient id="bg" x1="8" y1="8" x2="58" y2="58" gradientUnits="userSpaceOnUse">
      <stop offset="0" stop-color="#2563eb"/>
      <stop offset="0.62" stop-color="#164e9f"/>
      <stop offset="1" stop-color="#0f172a"/>
    </linearGradient>
    <linearGradient id="pen" x1="22" y1="47" x2="48" y2="21" gradientUnits="userSpaceOnUse">
      <stop offset="0" stop-color="#f59e0b"/>
      <stop offset="1" stop-color="#fef3c7"/>
    </linearGradient>
  </defs>
  <rect x="4" y="4" width="56" height="56" rx="15" fill="url(#bg)"/>
  <path d="M18 14h22l8 8v28H18V14z" fill="#f8fafc"/>
  <path d="M40 14v9h8" fill="#dbeafe"/>
  <path d="M25 26h9.5c4.2 0 6.8 2 6.8 5.1 0 2-1.1 3.4-3.1 4.1 2.5.6 3.9 2.3 3.9 4.7 0 3.6-2.9 5.8-7.6 5.8H25V26zm5.2 4.1v3.4h4c1.3 0 2.1-.6 2.1-1.7s-.8-1.7-2.1-1.7h-4zm0 7.3v4.1h4.7c1.5 0 2.4-.7 2.4-2 0-1.4-.9-2.1-2.4-2.1h-4.7z" fill="#1d4ed8"/>
  <path d="M20 49l4.1-10.2L42.9 20l7.1 7.1-18.8 18.8L20 49z" fill="url(#pen)"/>
  <path d="M39.4 23.5l7.1 7.1" stroke="#7c2d12" stroke-width="3" stroke-linecap="round"/>
  <path d="M20 49l7.7-2.8-4.9-4.9L20 49z" fill="#10b981"/>
</svg>
