<svg xmlns="http://www.w3.org/2000/svg" viewBox="0 0 512 512" width="512" height="512" role="img" aria-label="BlogArtifex">
  <defs>
    <linearGradient id="baNib" x1="150" y1="150" x2="330" y2="380" gradientUnits="userSpaceOnUse">
      <stop offset="0" stop-color="#c084fc"/>
      <stop offset="0.5" stop-color="#a855f7"/>
      <stop offset="1" stop-color="#22d3ee"/>
    </linearGradient>
    <linearGradient id="baPix" x1="300" y1="80" x2="440" y2="200" gradientUnits="userSpaceOnUse">
      <stop offset="0" stop-color="#e9d5ff"/>
      <stop offset="0.5" stop-color="#a855f7"/>
      <stop offset="1" stop-color="#22d3ee"/>
    </linearGradient>
    <radialGradient id="baGlow" cx="0.42" cy="0.4" r="0.7">
      <stop offset="0" stop-color="#3b2a63" stop-opacity="0.9"/>
      <stop offset="1" stop-color="#141019" stop-opacity="0"/>
    </radialGradient>
  </defs>

  <rect x="16" y="16" width="480" height="480" rx="116" fill="#161320"/>
  <rect x="16" y="16" width="480" height="480" rx="116" fill="url(#baGlow)"/>

  <g>
    <path d="M228 388 C 171 300 156 232 162 178 Q 164 150 198 146 L 258 146 Q 292 150 294 178 C 300 232 285 300 228 388 Z" fill="url(#baNib)"/>
    <path d="M228 372 L228 214" stroke="#161320" stroke-width="9" stroke-linecap="round"/>
    <circle cx="228" cy="196" r="15" fill="#161320"/>
    <path d="M228 388 C 200 320 190 250 196 190" stroke="#ffffff" stroke-opacity="0.18" stroke-width="6" fill="none" stroke-linecap="round"/>
  </g>

  <g fill="url(#baPix)">
    <rect x="300" y="150" width="30" height="30" rx="5" transform="rotate(12 315 165)"/>
    <rect x="342" y="120" width="24" height="24" rx="4" transform="rotate(18 354 132)"/>
    <rect x="378" y="150" width="18" height="18" rx="3"/>
    <rect x="372" y="98" width="14" height="14" rx="3" transform="rotate(20 379 105)"/>
    <rect x="410" y="128" width="11" height="11" rx="2"/>
    <rect x="404" y="92" width="8" height="8" rx="2"/>
    <circle cx="432" cy="104" r="5"/>
  </g>
  <path d="M356 78 C360 96 366 102 384 106 C366 110 360 116 356 134 C352 116 346 110 328 106 C346 102 352 96 356 78 Z" fill="#e9d5ff"/>
</svg>
